<?xml version="1.0" standalone="no"?>
<!DOCTYPE svg PUBLIC "-//W3C//DTD SVG 20010904//EN"
 "http://www.w3.org/TR/2001/REC-SVG-20010904/DTD/svg10.dtd">
<svg version="1.0" xmlns="http://www.w3.org/2000/svg"
 width="30pt" height="30pt" viewBox="0 0 1000.000000 750.000000"
 preserveAspectRatio="xMidYMid meet">

<g transform="translate(0.000000,750.000000) scale(0.100000,-0.100000)"
fill="#00FFB3" stroke="none">
<path d="M0 3750 l0 -3750 5000 0 5000 0 0 3750 0 3750 -5000 0 -5000 0 0
-3750z m2875 2893 c208 -39 343 -82 493 -157 460 -232 692 -679 692 -1329 0
-289 -37 -463 -145 -682 -124 -251 -286 -419 -529 -546 l-99 -52 80 -26 c222
-75 406 -211 557 -411 216 -287 321 -653 302 -1060 -20 -439 -129 -762 -350
-1035 -232 -288 -567 -456 -1001 -505 -54 -6 -455 -10 -992 -10 l-903 0 0
2921 0 2920 893 -4 c843 -4 898 -5 1002 -24z m2967 -1525 l3 -1553 320 400
c177 220 718 909 1204 1530 486 622 893 1140 905 1153 22 22 22 22 304 20
l281 -3 -1014 -1295 c-559 -712 -1014 -1299 -1011 -1305 3 -8 1626 -2410 2063
-3053 l124 -182 -279 0 -280 0 -972 1440 -973 1441 -28 -33 c-15 -18 -167
-195 -338 -393 l-311 -360 0 -1047 0 -1048 -230 0 -230 0 0 2920 0 2920 230 0
230 0 2 -1552z"/>
<path d="M1440 5145 l0 -1097 613 5 c645 5 694 8 857 56 205 59 378 175 493
330 137 185 209 481 193 801 -27 570 -277 873 -801 972 -102 19 -155 21 -732
25 l-623 5 0 -1097z"/>
<path d="M1440 2439 l0 -1190 693 4 c667 4 696 5 790 26 217 48 370 126 510
260 183 175 292 415 328 724 16 141 6 403 -21 530 -97 457 -387 745 -828 822
-69 12 -213 15 -778 15 l-694 0 0 -1191z"/>
</g>
</svg>
